<svg width="783.3px" height="143.6px" xmlns="http://www.w3.org/2000/svg" viewBox="-141.64687499999997 3.200000000000003 783.2937499999999 143.6" style="background: none" preserveAspectRatio="xMidYMid"><defs><filter id="editing-metal-beveled"><feGaussianBlur stdDeviation="4" in="SourceAlpha" result="blur"></feGaussianBlur><feSpecularLighting surfaceScale="5" specularConstant="0.8" specularExponent="7.5" lighting-color="#0f1010" in="blur" result="specular"><fePointLight x="-250" y="-50" z="300"></fePointLight></feSpecularLighting><feComposite operator="in" in="specular" in2="SourceAlpha" result="comp"></feComposite><feComposite in="SourceGraphic" in2="comp" operator="arithmetic" k1="0" k2="1" k3="1" k4="0"></feComposite></filter></defs><g filter="url(#editing-metal-beveled)"><g transform="matrix(1.2,0,0,1.1,-72.9,120.4)"><path d="M 17.6 -65 L 17.2 -24.9 L 17.5 -6.7 L 10.2 -6.7 L 10.6 -24.3 L 10.2 -65 L 17.6 -65 Z M 77.9 -52 L 82.5 -6.7 L 76.4 -6.7 L 75.4 -20.5 L 73 -41.5 L 72.4 -41.5 L 59.4 -11.8 L 54 -11.8 L 41.8 -41.5 L 41.2 -41.5 L 38.8 -21.1 L 37.6 -6.7 L 31.7 -6.7 L 36.7 -52 L 44.7 -52 L 46.9 -45.2 L 56.9 -20.8 L 57.4 -20.8 L 67.8 -45.6 L 70.1 -52 L 77.9 -52 Z M 115.8 -52 L 131.8 -6.7 L 124.9 -6.7 L 123.8 -11.6 L 121.5 -18.4 L 110.6 -18.5 L 101 -18.4 L 98.5 -12 L 97.3 -6.7 L 90.5 -6.7 L 108 -52 L 115.8 -52 Z M 111.2 -23.8 L 119.6 -23.9 L 112 -45.4 L 111.5 -45.4 L 103.2 -23.9 L 111.2 -23.8 Z M 161.4 -52.5 L 161.4 -52.5 Q 168.5 -52.5 175.7 -49.4 L 175.7 -49.4 L 173.4 -42.8 L 172.6 -42.8 L 172.6 -42.8 Q 169.2 -45 166.4 -45.9 L 166.4 -45.9 L 166.4 -45.9 Q 163.6 -46.8 160.3 -46.8 L 160.3 -46.8 L 160.3 -46.8 Q 152.6 -46.8 148.7 -42.4 L 148.7 -42.4 L 148.7 -42.4 Q 144.9 -38 144.9 -28.7 L 144.9 -28.7 L 144.9 -28.7 Q 144.9 -19.8 148.4 -15.9 L 148.4 -15.9 L 148.4 -15.9 Q 152 -11.9 159.7 -11.9 L 159.7 -11.9 L 159.7 -11.9 Q 162 -11.9 164.1 -12.3 L 164.1 -12.3 L 164.1 -12.3 Q 166.2 -12.7 169.2 -13.8 L 169.2 -13.8 L 169.2 -18.4 L 169.1 -24.8 L 175.3 -25.3 L 175.3 -8.9 L 175.3 -8.9 Q 166.2 -6.2 159.4 -6.2 L 159.4 -6.2 L 159.4 -6.2 Q 148.7 -6.2 143.2 -11.9 L 143.2 -11.9 L 143.2 -11.9 Q 137.7 -17.7 137.7 -28.5 L 137.7 -28.5 L 137.7 -28.5 Q 137.7 -40.1 143.9 -46.3 L 143.9 -46.3 L 143.9 -46.3 Q 150.1 -52.5 161.4 -52.5 L 161.4 -52.5 Z M 205.2 -12.2 L 217.3 -12.5 L 217.8 -12 L 217.2 -6.7 L 189.6 -6.7 L 189.9 -20.4 L 189.6 -52 L 217.4 -52 L 217.8 -51.5 L 217.3 -46.2 L 205.8 -46.6 L 196.4 -46.5 L 196.3 -32.7 L 205.3 -32.6 L 213.2 -32.9 L 213.7 -32.3 L 213.1 -26.9 L 204.7 -27.2 L 196.3 -27.1 L 196.2 -20.9 L 196.3 -12.3 L 205.2 -12.2 Z M 242.6 -52.5 L 242.6 -52.5 Q 248.1 -52.5 253.7 -50.3 L 253.7 -50.3 L 252.5 -43.6 L 251.4 -43.3 L 251.4 -43.3 Q 248.9 -45.3 246.6 -46.3 L 246.6 -46.3 L 246.6 -46.3 Q 244.3 -47.2 241.9 -47.2 L 241.9 -47.2 L 241.9 -47.2 Q 238 -47.2 235.7 -45.2 L 235.7 -45.2 L 235.7 -45.2 Q 233.4 -43.1 233.4 -40.5 L 233.4 -40.5 L 233.4 -40.5 Q 233.4 -37.8 235.6 -36.2 L 235.6 -36.2 L 235.6 -36.2 Q 237.9 -34.6 242.5 -32.6 L 242.5 -32.6 L 242.5 -32.6 Q 246.6 -30.7 249 -29.3 L 249 -29.3 L 249 -29.3 Q 251.4 -27.8 253.2 -25.4 L 253.2 -25.4 L 253.2 -25.4 Q 255 -23 255 -19.5 L 255 -19.5 L 255 -19.5 Q 255 -16 253.1 -12.9 L 253.1 -12.9 L 253.1 -12.9 Q 251.1 -9.9 247.5 -8 L 247.5 -8 L 247.5 -8 Q 243.8 -6.2 238.7 -6.2 L 238.7 -6.2 L 238.7 -6.2 Q 235.5 -6.2 232 -6.9 L 232 -6.9 L 232 -6.9 Q 228.5 -7.7 225.5 -9.3 L 225.5 -9.3 L 226.3 -16.5 L 227.2 -16.8 L 227.2 -16.8 Q 229.8 -14.3 233.2 -12.9 L 233.2 -12.9 L 233.2 -12.9 Q 236.6 -11.4 239.5 -11.4 L 239.5 -11.4 L 239.5 -11.4 Q 243.3 -11.4 245.8 -13.5 L 245.8 -13.5 L 245.8 -13.5 Q 248.2 -15.5 248.2 -18.5 L 248.2 -18.5 L 248.2 -18.5 Q 248.2 -21.2 246 -22.8 L 246 -22.8 L 246 -22.8 Q 243.8 -24.5 239 -26.6 L 239 -26.6 L 239 -26.6 Q 235.1 -28.4 232.6 -29.8 L 232.6 -29.8 L 232.6 -29.8 Q 230.1 -31.3 228.4 -33.7 L 228.4 -33.7 L 228.4 -33.7 Q 226.7 -36.1 226.7 -39.6 L 226.7 -39.6 L 226.7 -39.6 Q 226.7 -43.2 228.6 -46.1 L 228.6 -46.1 L 228.6 -46.1 Q 230.6 -49 234.2 -50.8 L 234.2 -50.8 L 234.2 -50.8 Q 237.8 -52.5 242.6 -52.5 L 242.6 -52.5 Z M 302.6 -52.5 L 302.6 -52.5 Q 309.7 -52.5 316.8 -49.4 L 316.8 -49.4 L 314.6 -42.8 L 313.8 -42.8 L 313.8 -42.8 Q 310.4 -45 307.6 -45.9 L 307.6 -45.9 L 307.6 -45.9 Q 304.7 -46.8 301.5 -46.8 L 301.5 -46.8 L 301.5 -46.8 Q 293.7 -46.8 289.9 -42.4 L 289.9 -42.4 L 289.9 -42.4 Q 286 -38 286 -28.7 L 286 -28.7 L 286 -28.7 Q 286 -19.8 289.5 -15.9 L 289.5 -15.9 L 289.5 -15.9 Q 293.1 -11.9 300.8 -11.9 L 300.8 -11.9 L 300.8 -11.9 Q 303.1 -11.9 305.2 -12.3 L 305.2 -12.3 L 305.2 -12.3 Q 307.3 -12.7 310.3 -13.8 L 310.3 -13.8 L 310.3 -18.4 L 310.2 -24.8 L 316.5 -25.3 L 316.5 -8.9 L 316.5 -8.9 Q 307.3 -6.2 300.6 -6.2 L 300.6 -6.2 L 300.6 -6.2 Q 289.8 -6.2 284.3 -11.9 L 284.3 -11.9 L 284.3 -11.9 Q 278.8 -17.7 278.8 -28.5 L 278.8 -28.5 L 278.8 -28.5 Q 278.8 -40.1 285 -46.3 L 285 -46.3 L 285 -46.3 Q 291.3 -52.5 302.6 -52.5 L 302.6 -52.5 Z M 350.2 -52 L 366.2 -6.7 L 359.3 -6.7 L 358.3 -11.6 L 355.9 -18.4 L 345.1 -18.5 L 335.4 -18.4 L 333 -12 L 331.7 -6.7 L 324.9 -6.7 L 342.4 -52 L 350.2 -52 Z M 345.6 -23.8 L 354 -23.9 L 346.4 -45.4 L 345.9 -45.4 L 337.6 -23.9 L 345.6 -23.8 Z M 401.5 -12.4 L 401.8 -11.8 L 401.4 -6.7 L 377.3 -6.7 L 377.5 -20.4 L 377.3 -52 L 384.1 -52 L 383.8 -20.9 L 384 -12.4 L 401.5 -12.4 Z M 435.8 -12.4 L 436.1 -11.8 L 435.7 -6.7 L 411.6 -6.7 L 411.9 -20.4 L 411.6 -52 L 418.4 -52 L 418.1 -20.9 L 418.3 -12.4 L 435.8 -12.4 Z M 461.6 -12.2 L 473.7 -12.5 L 474.3 -12 L 473.6 -6.7 L 446.1 -6.7 L 446.3 -20.4 L 446.1 -52 L 473.8 -52 L 474.3 -51.5 L 473.7 -46.2 L 462.3 -46.6 L 452.8 -46.5 L 452.7 -32.7 L 461.7 -32.6 L 469.6 -32.9 L 470.1 -32.3 L 469.5 -26.9 L 461.2 -27.2 L 452.7 -27.1 L 452.6 -20.9 L 452.7 -12.3 L 461.6 -12.2 Z M 506.5 -25 L 506.5 -25 Q 512 -16.5 518.8 -8.4 L 518.8 -8.4 L 518.7 -7.4 L 518.7 -7.4 Q 514.9 -6.3 512.4 -6.1 L 512.4 -6.1 L 511.2 -6.8 L 511.2 -6.8 Q 504.3 -17.3 500.8 -23.3 L 500.8 -23.3 L 492.2 -23.2 L 492.2 -20.9 L 492.4 -6.7 L 485.7 -6.7 L 485.9 -20.4 L 485.7 -52 L 501.1 -52.1 L 501.1 -52.1 Q 508.3 -52.1 512.2 -48.8 L 512.2 -48.8 L 512.2 -48.8 Q 516 -45.4 516 -39 L 516 -39 L 516 -39 Q 516 -34.4 513.5 -30.7 L 513.5 -30.7 L 513.5 -30.7 Q 511 -27.1 506.5 -25 L 506.5 -25 Z M 492.4 -46.6 L 492.3 -28.8 L 500.8 -28.6 L 500.8 -28.6 Q 508.9 -30.8 508.9 -38.5 L 508.9 -38.5 L 508.9 -38.5 Q 508.9 -42.5 506.6 -44.5 L 506.6 -44.5 L 506.6 -44.5 Q 504.2 -46.5 499.4 -46.7 L 499.4 -46.7 L 492.4 -46.6 Z M 544 -22.5 L 543.9 -19.7 L 544.2 -6.7 L 537.3 -6.7 L 537.7 -19.7 L 537.6 -22.5 L 522.2 -52 L 529.7 -52 L 530.6 -49.4 L 540.8 -29.9 L 541.3 -29.9 L 552.4 -49.1 L 553.5 -52 L 560.8 -52 L 544 -22.5 Z" fill="#070707"></path></g></g><style>text {
  font-size: 64px;
  font-family: Arial Black;
  dominant-baseline: central;
  text-anchor: middle;
}</style></svg>